<mxfile host="Electron" modified="2023-08-06T13:36:17.351Z" agent="Mozilla/5.0 (Windows NT 10.0; Win64; x64) AppleWebKit/537.36 (KHTML, like Gecko) draw.io/21.6.5 Chrome/114.0.5735.243 Electron/25.3.1 Safari/537.36" etag="Sh1I_UYDXAqpfTOfKQFr" version="21.6.5" type="device">
  <diagram name="Page-1" id="baVTsJwjLCHH9LQtNdZk">
    <mxGraphModel dx="880" dy="511" grid="1" gridSize="10" guides="1" tooltips="1" connect="1" arrows="1" fold="1" page="1" pageScale="1" pageWidth="1169" pageHeight="827" math="0" shadow="0">
      <root>
        <mxCell id="0" />
        <mxCell id="1" parent="0" />
        <mxCell id="lqBAFza7kGrp6FdPjPZA-1" style="rounded=0;orthogonalLoop=1;jettySize=auto;html=1;exitX=0.5;exitY=1;exitDx=0;exitDy=0;entryX=0.5;entryY=0;entryDx=0;entryDy=0;startArrow=diamondThin;startFill=1;startSize=12;endArrow=openThin;endFill=0;endSize=12;" edge="1" parent="1" source="lqBAFza7kGrp6FdPjPZA-13" target="lqBAFza7kGrp6FdPjPZA-14">
          <mxGeometry relative="1" as="geometry">
            <Array as="points">
              <mxPoint x="185" y="80" />
              <mxPoint x="66" y="80" />
            </Array>
          </mxGeometry>
        </mxCell>
        <mxCell id="lqBAFza7kGrp6FdPjPZA-3" value="2" style="edgeLabel;html=1;align=center;verticalAlign=middle;resizable=0;points=[];" vertex="1" connectable="0" parent="lqBAFza7kGrp6FdPjPZA-1">
          <mxGeometry x="0.455" y="2" relative="1" as="geometry">
            <mxPoint x="-6" y="16" as="offset" />
          </mxGeometry>
        </mxCell>
        <mxCell id="lqBAFza7kGrp6FdPjPZA-4" value="+scrollbar" style="edgeLabel;html=1;align=center;verticalAlign=middle;resizable=0;points=[];" vertex="1" connectable="0" parent="lqBAFza7kGrp6FdPjPZA-1">
          <mxGeometry x="0.4779" relative="1" as="geometry">
            <mxPoint x="-41" y="18" as="offset" />
          </mxGeometry>
        </mxCell>
        <mxCell id="lqBAFza7kGrp6FdPjPZA-5" style="rounded=0;orthogonalLoop=1;jettySize=auto;html=1;exitX=0.5;exitY=1;exitDx=0;exitDy=0;entryX=0.5;entryY=0;entryDx=0;entryDy=0;endArrow=openThin;startArrow=diamondThin;startFill=1;startSize=12;endFill=0;endSize=12;" edge="1" parent="1" source="lqBAFza7kGrp6FdPjPZA-13" target="lqBAFza7kGrp6FdPjPZA-15">
          <mxGeometry relative="1" as="geometry" />
        </mxCell>
        <mxCell id="lqBAFza7kGrp6FdPjPZA-6" value="1" style="edgeLabel;html=1;align=center;verticalAlign=middle;resizable=0;points=[];" vertex="1" connectable="0" parent="lqBAFza7kGrp6FdPjPZA-5">
          <mxGeometry x="-0.3571" y="-1" relative="1" as="geometry">
            <mxPoint x="7" y="-5" as="offset" />
          </mxGeometry>
        </mxCell>
        <mxCell id="lqBAFza7kGrp6FdPjPZA-7" value="1" style="edgeLabel;html=1;align=center;verticalAlign=middle;resizable=0;points=[];" vertex="1" connectable="0" parent="lqBAFza7kGrp6FdPjPZA-5">
          <mxGeometry x="0.5527" y="3" relative="1" as="geometry">
            <mxPoint x="7" y="-1" as="offset" />
          </mxGeometry>
        </mxCell>
        <mxCell id="lqBAFza7kGrp6FdPjPZA-8" value="+title" style="edgeLabel;html=1;align=center;verticalAlign=middle;resizable=0;points=[];" vertex="1" connectable="0" parent="lqBAFza7kGrp6FdPjPZA-5">
          <mxGeometry x="0.5301" y="1" relative="1" as="geometry">
            <mxPoint x="-21" y="-1" as="offset" />
          </mxGeometry>
        </mxCell>
        <mxCell id="lqBAFza7kGrp6FdPjPZA-9" style="rounded=0;orthogonalLoop=1;jettySize=auto;html=1;exitX=0.5;exitY=1;exitDx=0;exitDy=0;entryX=0.5;entryY=0;entryDx=0;entryDy=0;endArrow=openThin;startArrow=diamondThin;startFill=1;startSize=12;endFill=0;endSize=12;" edge="1" parent="1" source="lqBAFza7kGrp6FdPjPZA-13" target="lqBAFza7kGrp6FdPjPZA-16">
          <mxGeometry relative="1" as="geometry">
            <Array as="points">
              <mxPoint x="185" y="80" />
              <mxPoint x="305" y="80" />
            </Array>
          </mxGeometry>
        </mxCell>
        <mxCell id="lqBAFza7kGrp6FdPjPZA-11" value="1" style="edgeLabel;html=1;align=center;verticalAlign=middle;resizable=0;points=[];" vertex="1" connectable="0" parent="lqBAFza7kGrp6FdPjPZA-9">
          <mxGeometry x="0.5377" y="-2" relative="1" as="geometry">
            <mxPoint x="17" y="17" as="offset" />
          </mxGeometry>
        </mxCell>
        <mxCell id="lqBAFza7kGrp6FdPjPZA-12" value="+body" style="edgeLabel;html=1;align=center;verticalAlign=middle;resizable=0;points=[];" vertex="1" connectable="0" parent="lqBAFza7kGrp6FdPjPZA-9">
          <mxGeometry x="0.4688" y="1" relative="1" as="geometry">
            <mxPoint x="-10" y="20" as="offset" />
          </mxGeometry>
        </mxCell>
        <mxCell id="lqBAFza7kGrp6FdPjPZA-19" value="+window" style="edgeLabel;html=1;align=center;verticalAlign=middle;resizable=0;points=[];" vertex="1" connectable="0" parent="lqBAFza7kGrp6FdPjPZA-9">
          <mxGeometry x="-0.7186" relative="1" as="geometry">
            <mxPoint x="-33" y="-15" as="offset" />
          </mxGeometry>
        </mxCell>
        <mxCell id="lqBAFza7kGrp6FdPjPZA-13" value="&lt;b&gt;Window&lt;/b&gt;" style="whiteSpace=wrap;html=1;" vertex="1" parent="1">
          <mxGeometry x="153" y="15" width="64" height="26" as="geometry" />
        </mxCell>
        <mxCell id="lqBAFza7kGrp6FdPjPZA-14" value="&lt;b&gt;Slider&lt;/b&gt;" style="whiteSpace=wrap;html=1;" vertex="1" parent="1">
          <mxGeometry x="40" y="120" width="51" height="26" as="geometry" />
        </mxCell>
        <mxCell id="lqBAFza7kGrp6FdPjPZA-15" value="&lt;b&gt;Header&lt;/b&gt;" style="whiteSpace=wrap;html=1;" vertex="1" parent="1">
          <mxGeometry x="155.5" y="120" width="59" height="26" as="geometry" />
        </mxCell>
        <mxCell id="lqBAFza7kGrp6FdPjPZA-16" value="&lt;b&gt;Panel&lt;/b&gt;" style="whiteSpace=wrap;html=1;" vertex="1" parent="1">
          <mxGeometry x="280" y="120" width="50" height="26" as="geometry" />
        </mxCell>
        <mxCell id="lqBAFza7kGrp6FdPjPZA-17" value="&lt;b&gt;Figure 11.34 Composite aggregation sharing a source segment&lt;/b&gt;" style="text;html=1;align=left;verticalAlign=middle;resizable=0;points=[];autosize=1;strokeColor=none;fillColor=none;" vertex="1" parent="1">
          <mxGeometry x="40" y="151" width="380" height="30" as="geometry" />
        </mxCell>
      </root>
    </mxGraphModel>
  </diagram>
</mxfile>
